PathFileType	4	(X/Y/Z)	C:\Users\Basilio\Documents\Thesis Gigler\squatting_fais\c3dfiles\041\SLS_pre_front1\markers_experimental.trc
DataRate	CameraRate	NumFrames	NumMarkers	Units	OrigDataRate	OrigDataStartFrame	OrigNumFrames
200.000000	200.000000	4	62	mm	200.000000	379	1517
Frame#	Time	FHD			LBHD			RBHD			C7			T10			CLAV			LSHO			LUUPA			LMUPA			LDUPA			LLEP			LMEP			LRAD			LUL			LRFIN			RSHO			RUPA1			RMUPA			RDUPA			RLEP			RMEP			RRAD			RUL			RUFIN			LASI			RASI			USACR			LSACR			RSACR			LTHI1			LTHI2			LTHI3			LTHI4			LLFC			LMFC			LTIB1			LTIB2			LTIB3			LTIB4			LLMAL			LMMAL			LHEE			LMT1			LMT2			LMT5			RTHI			RTHI2			RTHI3			RTHI4			RLFC			RMFC			RTIB1			RTIB2			RTIB3			RTIB4			RLMAL			RMMAL			RHEE			RMT1			RMT2			RMT5			*61			
		X1	Y1	Z1	X2	Y2	Z2	X3	Y3	Z3	X4	Y4	Z4	X5	Y5	Z5	X6	Y6	Z6	X7	Y7	Z7	X8	Y8	Z8	X9	Y9	Z9	X10	Y10	Z10	X11	Y11	Z11	X12	Y12	Z12	X13	Y13	Z13	X14	Y14	Z14	X15	Y15	Z15	X16	Y16	Z16	X17	Y17	Z17	X18	Y18	Z18	X19	Y19	Z19	X20	Y20	Z20	X21	Y21	Z21	X22	Y22	Z22	X23	Y23	Z23	X24	Y24	Z24	X25	Y25	Z25	X26	Y26	Z26	X27	Y27	Z27	X28	Y28	Z28	X29	Y29	Z29	X30	Y30	Z30	X31	Y31	Z31	X32	Y32	Z32	X33	Y33	Z33	X34	Y34	Z34	X35	Y35	Z35	X36	Y36	Z36	X37	Y37	Z37	X38	Y38	Z38	X39	Y39	Z39	X40	Y40	Z40	X41	Y41	Z41	X42	Y42	Z42	X43	Y43	Z43	X44	Y44	Z44	X45	Y45	Z45	X46	Y46	Z46	X47	Y47	Z47	X48	Y48	Z48	X49	Y49	Z49	X50	Y50	Z50	X51	Y51	Z51	X52	Y52	Z52	X53	Y53	Z53	X54	Y54	Z54	X55	Y55	Z55	X56	Y56	Z56	X57	Y57	Z57	X58	Y58	Z58	X59	Y59	Z59	X60	Y60	Z60	X61	Y61	Z61	X62	Y62	Z62	

380	1.895	-238.2886199951172	1766.8642578125	-1088.881103515625	-412.700897216797	1698.985107421875	-1168.5693359375	-396.7443237304689	1703.03857421875	-1016.454162597656	-455.3208618164064	1547.736328125	-1105.626342773438	-486.4356994628907	1239.220703125	-1076.152709960938	-296.1124572753907	1493.844604492188	-1102.9189453125	-375.3705749511719	1553.696655273438	-1249.690551757813	-265.3193054199219	1538.504272460938	-1374.988647460938	-221.8222045898438	1552.335083007813	-1357.311157226563	-207.010726928711	1534.712036132813	-1414.142578125	-163.8522644042969	1529.1259765625	-1430.73681640625	-124.4112777709961	1463.734375	-1391.936157226563	110.5293579101563	1552.615844726563	-1482.5380859375	75.23065185546876	1548.735595703125	-1547.037231445313	168.8857879638672	1591.7529296875	-1515.694091796875	-373.3793945312501	1568.914306640625	-970.1247558593752	-234.861312866211	1552.270141601563	-842.9117431640627	-213.7776336669922	1581.44873046875	-878.3919067382815	-168.0193176269532	1574.895874023438	-840.7861938476565	-123.7001571655274	1578.974975585938	-837.507019042969	-100.5323715209961	1501.947631835938	-867.6989746093752	145.7687225341797	1588.836181640625	-864.5593261718752	132.0957946777344	1600.315795898438	-792.138610839844	222.3141784667969	1616.46484375	-858.677185058594	-312.5242614746094	1045.3505859375	-1166.2626953125	-320.1036987304688	1065.323364257813	-941.6412353515627	-497.3400268554689	1119.91015625	-1063.275390625	-508.9619750976564	1090.304565429688	-1087.644287109375	-513.3610839843751	1095.452026367188	-1032.913208007813	-395.2801818847657	825.5775146484377	-1217.369384765625	-346.0030822753907	757.0578613281251	-1208.800415039063	-299.7027893066407	769.717712402344	-1201.201904296875	-363.1167297363282	700.3386840820314	-1192.638793945313	-313.6725769042969	532.2093505859376	-1161.334716796875	-302.8228454589844	525.2807006835939	-1043.578247070313	-293.5187988281251	345.0927429199219	-1088.768920898438	-344.8395080566407	301.4510192871094	-1146.49462890625	-307.8328247070313	295.8618164062501	-1121.112060546875	-315.8809204101563	222.5604095458985	-1080.29443359375	-383.4749755859376	131.6939544677735	-1110.1689453125	-344.4252624511719	141.0108947753907	-1029.934814453125	-449.4038696289064	117.6533126831055	-1065.022827148438	-243.3815155029297	64.56044769287111	-1040.174560546875	-237.2704620361329	57.4755325317383	-1084.991943359375	-286.8158569335938	43.18426132202149	-1137.460571289063	-313.2087402343751	822.7244873046877	-841.7055664062502	-249.3520965576172	804.5664672851565	-839.575622558594	-224.3830871582032	825.0311279296877	-848.5256958007815	-223.1228332519532	723.6510009765626	-845.7658691406252	-146.08740234375	622.6768188476564	-836.3238525390627	-114.995590209961	607.7706909179689	-951.762145996094	-20.12606811523438	506.9947814941407	-826.116882324219	-43.7150001525879	397.9277343750001	-803.550231933594	-4.19951343536377	423.0525207519532	-804.5332641601565	44.16721725463868	395.9333801269532	-826.3098754882815	70.38022613525392	266.8839111328126	-800.0383911132815	87.24532318115236	295.7404479980469	-880.7668457031252	51.1454544067383	197.9078063964844	-847.824645996094	227.6755828857422	324.3216552734376	-856.0625000000002	224.5981750488282	333.7980651855469	-804.651062011719	201.5584716796876	291.3250732421876	-757.0982055664064	-4216.808105468751	853.1209716796877	-3944.648437500001	
381	1.9	-238.1561279296876	1766.727294921875	-1089.219116210938	-412.5322570800782	1698.802856445313	-1168.728759765625	-396.6663513183595	1702.917114257813	-1016.505920410156	-455.2345275878907	1547.663452148438	-1105.751342773438	-486.5484924316407	1239.193359375	-1076.225830078125	-295.9954528808594	1493.678955078125	-1103.094116210938	-375.2801208496094	1553.618530273438	-1249.841918945313	-264.7984313964844	1538.45166015625	-1375.292724609375	-221.7435760498047	1552.23583984375	-1357.377685546875	-206.8486938476563	1534.592529296875	-1414.161010742188	-163.7532501220703	1529.013061523438	-1430.7490234375	-124.2739028930664	1463.6640625	-1391.950073242188	110.8636932373047	1552.396728515625	-1482.319580078125	75.55381011962892	1548.554077148438	-1546.91015625	168.9790802001953	1591.660400390625	-1515.542846679688	-373.1766052246094	1568.782104492188	-970.2852172851565	-234.8865509033204	1552.065185546875	-843.0570068359377	-213.6278076171876	1581.402709960938	-878.4714355468752	-167.9209442138672	1574.75830078125	-840.8255004882815	-123.6752853393555	1578.962646484375	-837.5518188476565	-100.5409927368164	1501.967651367188	-868.0274658203127	145.8999176025391	1588.77001953125	-864.5389404296877	132.2045440673828	1600.254760742188	-792.115417480469	222.3791961669922	1616.3486328125	-858.6419067382815	-312.8384399414063	1045.222534179688	-1166.452026367188	-320.1365356445313	1065.162841796875	-941.922546386719	-497.6184387207032	1119.83837890625	-1063.273071289063	-509.2991333007814	1090.240600585938	-1087.66796875	-513.4561767578126	1095.408935546875	-1032.88623046875	-395.5226135253907	825.4938964843752	-1217.475219726563	-346.2453918457032	757.0046997070314	-1208.897583007813	-300.5924377441407	770.1243286132815	-1201.600219726563	-363.2969665527344	700.2357177734376	-1192.82763671875	-314.0049743652344	532.2119140625001	-1161.352783203125	-302.6996765136719	525.2402954101564	-1043.77978515625	-293.4060974121094	345.0216369628907	-1088.948852539063	-344.8913269042969	301.4244384765626	-1146.61328125	-307.8643493652344	295.8294372558594	-1121.198974609375	-315.8839721679688	222.5520629882813	-1080.372192382813	-383.5305786132813	131.7140808105469	-1110.191528320313	-344.4342651367188	141.0647125244141	-1029.962768554688	-449.404510498047	117.6798095703125	-1065.007202148438	-243.3465423583985	64.56999969482423	-1040.287475585938	-237.2698211669922	57.3634719848633	-1085.007080078125	-286.6749572753907	43.20075988769532	-1137.630737304688	-312.6188659667969	822.9733886718752	-841.8863525390627	-248.9982452392579	805.0234375000002	-839.588806152344	-224.0529174804688	825.4064941406252	-848.6917114257815	-222.1626739501954	724.1080322265626	-845.9709472656252	-145.0264587402344	623.4895019531251	-836.6865234375002	-113.9582595825196	608.4825439453126	-951.9035644531252	-18.99762535095215	507.7429504394532	-826.161560058594	-42.22743225097657	398.8010253906251	-804.0870361328127	-2.784055709838868	423.9705200195314	-804.8948974609377	45.39782333374024	397.048797607422	-826.3862915039065	72.10894775390626	267.9837036132813	-800.208679199219	88.98606109619142	296.3035583496094	-881.1021728515627	52.48479461669923	199.0612335205079	-847.902038574219	227.9297332763672	325.6571655273438	-856.821960449219	226.0728912353516	335.1382141113282	-805.2764282226565	203.0985107421876	292.7008972167969	-757.5958862304689	-4216.919433593751	853.1934814453127	-3944.640136718751	
382	1.905	-238.325668334961	1766.870483398438	-1089.463134765625	-412.5621643066407	1698.62353515625	-1168.892456054688	-396.4925231933595	1702.82958984375	-1016.625183105469	-455.1135559082032	1547.596313476563	-1105.834106445313	-486.6888732910157	1239.1650390625	-1076.2373046875	-295.9114379882813	1493.503295898438	-1103.264526367188	-375.1672668457032	1553.555786132813	-1249.984497070313	-264.6589965820313	1538.308837890625	-1375.370849609375	-221.6534881591797	1552.106201171875	-1357.444702148438	-206.7515106201172	1534.460083007813	-1414.25634765625	-163.5553741455078	1528.9091796875	-1430.801391601563	-124.0971755981446	1463.501342773438	-1391.89599609375	111.2842178344727	1552.445068359375	-1482.108154296875	75.93737792968751	1548.376220703125	-1546.802368164063	169.2739715576172	1591.494140625	-1515.452880859375	-373.0162048339844	1568.656860351563	-970.4436645507815	-234.7785186767579	1552.083251953125	-843.0440673828127	-213.5547485351563	1581.245483398438	-878.5986938476565	-167.7846374511719	1574.669921875	-840.913513183594	-123.5130004882813	1578.948974609375	-837.693786621094	-100.4883651733399	1501.815551757813	-868.009216308594	146.0100708007813	1588.728149414063	-864.4675292968752	132.2444305419922	1600.236206054688	-792.097595214844	222.4959869384766	1616.2998046875	-858.557556152344	-313.1506652832032	1045.070190429688	-1166.701049804688	-320.1566467285157	1065.0283203125	-942.159118652344	-497.7799682617189	1119.790405273438	-1063.271606445313	-509.6841735839845	1090.193725585938	-1087.674438476563	-513.6878662109376	1095.377807617188	-1032.82666015625	-395.7351684570314	825.3692016601565	-1217.562866210938	-346.4145507812501	756.9392700195314	-1209.024169921875	-300.7671508789063	770.0425415039065	-1201.755981445313	-363.3868103027344	700.1555786132814	-1192.923828125	-314.1173400878907	532.2617797851564	-1161.473266601563	-302.6445007324219	525.2784423828126	-1043.853759765625	-293.3928222656251	345.0141601562501	-1089.094604492188	-344.9635009765626	301.4432983398438	-1146.669921875	-307.8889465332032	295.8348083496094	-1121.255737304688	-315.8030700683594	222.5165710449219	-1080.547607421875	-383.5370178222657	131.6551818847657	-1110.233520507813	-344.3583984375001	141.0987548828125	-1030.036865234375	-449.4024353027345	117.665283203125	-1065.0107421875	-243.5650939941407	64.60629272460939	-1039.942138671875	-237.2582550048829	57.46850585937501	-1085.088989257813	-286.7050170898438	43.22729873657227	-1137.760864257813	-312.0771179199219	823.2529296875002	-842.2054443359377	-248.5334472656251	805.4570922851565	-839.6564941406252	-223.416488647461	825.802185058594	-849.0963134765627	-221.5064697265626	724.4110107421876	-846.059509277344	-144.10009765625	623.8871459960939	-836.9078369140627	-113.1110382080078	609.1055297851564	-952.2292480468752	-17.92811393737793	508.3574523925782	-827.1866455078127	-40.83956527709962	399.6962890625001	-804.2756958007815	-1.517258644104004	424.8306884765626	-805.1463012695315	46.7573356628418	398.0252075195314	-826.755310058594	73.60343170166017	268.8642883300782	-800.6978149414065	90.27906799316408	297.7336730957032	-881.4128417968752	54.42390823364259	200.5270233154297	-848.3621826171877	229.3675842285157	327.0870056152344	-857.3055419921877	227.4992828369141	336.3294677734376	-805.4758911132815	204.3465118408204	294.3486022949219	-757.8640747070314	-4217.066406250001	853.2015380859377	-3944.598876953126	
383	1.91	-238.2003173828126	1766.731079101563	-1089.636962890625	-412.3169250488282	1698.412109375	-1169.073974609375	-396.3782653808595	1702.664306640625	-1016.806396484375	-454.9768066406251	1547.541748046875	-1105.99853515625	-486.7333374023439	1239.093505859375	-1076.226440429688	-295.8143615722657	1493.371948242188	-1103.434326171875	-374.9823608398438	1553.4755859375	-1250.136352539063	-264.6116638183594	1538.133056640625	-1375.48046875	-221.6586151123047	1552.03857421875	-1357.524291992188	-206.6433105468751	1534.286254882813	-1414.3525390625	-163.3173522949219	1528.744506835938	-1430.855590820313	-123.9467544555664	1463.39208984375	-1391.900512695313	111.3986434936524	1552.393432617188	-1482.005493164063	76.19273376464845	1548.225341796875	-1546.693237304688	169.5205841064453	1591.402954101563	-1515.3544921875	-372.8283996582032	1568.546997070313	-970.6109008789065	-234.6775665283204	1551.978393554688	-843.095886230469	-213.291000366211	1581.11181640625	-878.7913208007815	-167.717269897461	1574.604370117188	-840.9910278320315	-123.2578201293946	1578.9638671875	-837.8267211914065	-100.3603668212891	1501.694458007813	-868.0294189453127	146.140869140625	1588.608276367188	-864.4378662109377	132.3558349609375	1600.198608398438	-792.0437011718752	222.5985565185547	1616.217895507813	-858.4862060546877	-313.1082458496094	1044.744750976563	-1166.86376953125	-320.2424926757813	1064.923950195313	-942.371520996094	-497.9874877929689	1119.753295898438	-1063.305908203125	-509.9760131835939	1090.102416992188	-1087.6396484375	-513.8897094726564	1095.30517578125	-1032.829833984375	-395.877166748047	825.3272094726565	-1217.677368164063	-346.4970703125001	756.8799438476564	-1209.150634765625	-300.9473266601563	770.0073852539065	-1201.968139648438	-363.5078430175782	700.0310058593751	-1193.12939453125	-314.2416076660157	532.2371215820314	-1161.587158203125	-302.6220092773438	525.2689819335939	-1043.965087890625	-293.3661499023438	344.9861755371094	-1089.209350585938	-345.0669860839844	301.4582214355469	-1146.663452148438	-307.9254760742188	295.8353881835938	-1121.359252929688	-315.6770935058594	222.5746612548829	-1080.745361328125	-383.5521545410157	131.6746063232422	-1110.237548828125	-344.3138732910157	141.1067352294922	-1030.078857421875	-449.4121398925782	117.6841049194336	-1064.994140625	-243.5789031982422	64.59857177734376	-1039.959838867188	-237.2553100585938	57.48490524291994	-1085.087158203125	-286.5897521972657	42.7385368347168	-1137.494262695313	-311.4830017089844	823.2771606445315	-842.9934692382815	-247.8611297607422	805.667175292969	-840.2181396484377	-223.2283782958985	826.092468261719	-849.2585449218752	-220.9001770019532	724.9455566406251	-846.2493896484377	-143.25390625	624.4405517578126	-837.2161865234377	-112.4633712768555	609.7634277343751	-952.3566894531252	-16.75316429138184	509.5180664062501	-826.9502563476565	-39.61322784423829	400.6641540527345	-804.6311035156252	-0.253756195306778	425.6427001953126	-805.3564453125002	48.05992889404298	398.8279724121095	-827.128601074219	75.22779083251955	269.8969421386719	-800.9058837890627	91.84402465820314	298.6692199707032	-881.8420410156252	56.34791183471681	200.8911743164063	-848.8061523437502	231.9000396728516	328.5175781250001	-857.105407714844	229.2533721923829	337.4580078125001	-805.8526000976565	206.1103210449219	295.5789489746094	-758.4224853515626	-4217.041992187501	853.1547851562502	-3944.781494140626	
